<svg xmlns="http://www.w3.org/2000/svg" viewBox="0 0 1000 760" font-family="Segoe UI, Arial, sans-serif">
  <defs>
    <marker id="arrow" viewBox="0 0 10 10" refX="9" refY="5" markerWidth="7" markerHeight="7" orient="auto-start-reverse">
      <path d="M 0 0 L 10 5 L 0 10 z" fill="#444"/>
    </marker>
    <marker id="arrowp" viewBox="0 0 10 10" refX="9" refY="5" markerWidth="7" markerHeight="7" orient="auto-start-reverse">
      <path d="M 0 0 L 10 5 L 0 10 z" fill="#e0457b"/>
    </marker>
    <marker id="arrowg" viewBox="0 0 10 10" refX="9" refY="5" markerWidth="7" markerHeight="7" orient="auto-start-reverse">
      <path d="M 0 0 L 10 5 L 0 10 z" fill="#1b9e4b"/>
    </marker>
    <marker id="arrowr" viewBox="0 0 10 10" refX="9" refY="5" markerWidth="7" markerHeight="7" orient="auto-start-reverse">
      <path d="M 0 0 L 10 5 L 0 10 z" fill="#d93025"/>
    </marker>
  </defs>

  <rect width="1000" height="760" fill="#ffffff"/>
  <text x="500" y="34" text-anchor="middle" font-size="22" font-weight="bold" fill="#232f3e">Cinemax Serverless API — Architecture</text>

  <!-- AWS Cloud boundary -->
  <rect x="255" y="60" width="715" height="660" rx="10" fill="#f7f7f7" stroke="#ff9900" stroke-width="2" stroke-dasharray="8 4"/>
  <text x="275" y="86" font-size="15" font-weight="bold" fill="#ff9900">AWS Cloud (ap-southeast-1)</text>

  <!-- Flutter app -->
  <rect x="30" y="300" width="160" height="110" rx="10" fill="#e8f4fd" stroke="#1a73e8" stroke-width="2"/>
  <text x="110" y="345" text-anchor="middle" font-size="15" font-weight="bold" fill="#1a73e8">Cinemax</text>
  <text x="110" y="365" text-anchor="middle" font-size="13" fill="#333">Flutter App</text>
  <text x="110" y="385" text-anchor="middle" font-size="11" fill="#666">(mobile client)</text>

  <!-- API Gateway -->
  <rect x="300" y="295" width="170" height="120" rx="8" fill="#fff" stroke="#a166ff" stroke-width="2.5"/>
  <text x="385" y="338" text-anchor="middle" font-size="14" font-weight="bold" fill="#7d3bd6">Amazon</text>
  <text x="385" y="356" text-anchor="middle" font-size="14" font-weight="bold" fill="#7d3bd6">API Gateway</text>
  <text x="385" y="380" text-anchor="middle" font-size="11" fill="#666">REST API · stage: prod</text>
  <text x="385" y="396" text-anchor="middle" font-size="11" fill="#666">CORS enabled</text>

  <!-- Lambda movies -->
  <rect x="555" y="100" width="180" height="95" rx="8" fill="#fff" stroke="#ff9900" stroke-width="2.5"/>
  <text x="645" y="135" text-anchor="middle" font-size="14" font-weight="bold" fill="#cc7a00">AWS Lambda</text>
  <text x="645" y="155" text-anchor="middle" font-size="12" fill="#333">cinemax-movies</text>
  <text x="645" y="173" text-anchor="middle" font-size="11" fill="#666">list · detail · search · Node.js 22</text>

  <!-- Lambda auth -->
  <rect x="555" y="260" width="180" height="95" rx="8" fill="#fff" stroke="#ff9900" stroke-width="2.5"/>
  <text x="645" y="295" text-anchor="middle" font-size="14" font-weight="bold" fill="#cc7a00">AWS Lambda</text>
  <text x="645" y="315" text-anchor="middle" font-size="12" fill="#333">cinemax-auth</text>
  <text x="645" y="333" text-anchor="middle" font-size="11" fill="#666">register · login · OTP · Google · JWT</text>

  <!-- Lambda bookmarks -->
  <rect x="555" y="420" width="180" height="95" rx="8" fill="#fff" stroke="#ff9900" stroke-width="2.5"/>
  <text x="645" y="455" text-anchor="middle" font-size="14" font-weight="bold" fill="#cc7a00">AWS Lambda</text>
  <text x="645" y="475" text-anchor="middle" font-size="12" fill="#333">cinemax-bookmarks</text>
  <text x="645" y="493" text-anchor="middle" font-size="11" fill="#666">add / list / remove</text>

  <!-- DynamoDB movies -->
  <rect x="800" y="100" width="155" height="95" rx="8" fill="#fff" stroke="#3b48cc" stroke-width="2.5"/>
  <text x="877" y="135" text-anchor="middle" font-size="13" font-weight="bold" fill="#3b48cc">DynamoDB</text>
  <text x="877" y="155" text-anchor="middle" font-size="12" fill="#333">cinemax-movies</text>
  <text x="877" y="173" text-anchor="middle" font-size="9.5" fill="#666">GSI: slug · category-createdAt</text>

  <!-- DynamoDB users -->
  <rect x="800" y="260" width="155" height="95" rx="8" fill="#fff" stroke="#3b48cc" stroke-width="2.5"/>
  <text x="877" y="295" text-anchor="middle" font-size="13" font-weight="bold" fill="#3b48cc">DynamoDB</text>
  <text x="877" y="315" text-anchor="middle" font-size="12" fill="#333">cinemax-users</text>
  <text x="877" y="333" text-anchor="middle" font-size="10" fill="#666">PK: email · bcrypt hash</text>

  <!-- DynamoDB bookmarks -->
  <rect x="800" y="420" width="155" height="95" rx="8" fill="#fff" stroke="#3b48cc" stroke-width="2.5"/>
  <text x="877" y="455" text-anchor="middle" font-size="13" font-weight="bold" fill="#3b48cc">DynamoDB</text>
  <text x="877" y="475" text-anchor="middle" font-size="12" fill="#333">cinemax-bookmarks</text>
  <text x="877" y="493" text-anchor="middle" font-size="10" fill="#666">PK: userId · SK: movieId</text>

  <!-- Gmail OTP -->
  <rect x="555" y="560" width="180" height="60" rx="8" fill="#fff" stroke="#d93025" stroke-width="2" stroke-dasharray="5 3"/>
  <text x="645" y="585" text-anchor="middle" font-size="12" font-weight="bold" fill="#d93025">Gmail SMTP</text>
  <text x="645" y="603" text-anchor="middle" font-size="10" fill="#666">OTP verification emails</text>

  <!-- S3 -->
  <rect x="300" y="560" width="170" height="80" rx="8" fill="#fff" stroke="#1b9e4b" stroke-width="2.5"/>
  <text x="385" y="592" text-anchor="middle" font-size="13" font-weight="bold" fill="#1b9e4b">Amazon S3</text>
  <text x="385" y="610" text-anchor="middle" font-size="11" fill="#333">cinemax-posters</text>
  <text x="385" y="626" text-anchor="middle" font-size="10" fill="#666">public read: posters/* only</text>

  <!-- CloudWatch -->
  <rect x="785" y="640" width="180" height="60" rx="8" fill="#fff" stroke="#e0457b" stroke-width="2.5"/>
  <text x="875" y="665" text-anchor="middle" font-size="13" font-weight="bold" fill="#e0457b">Amazon CloudWatch</text>
  <text x="875" y="683" text-anchor="middle" font-size="10" fill="#666">logs · metrics · 5XX alarm</text>

  <!-- Arrows: app -> API GW -->
  <line x1="190" y1="355" x2="295" y2="355" stroke="#444" stroke-width="2" marker-end="url(#arrow)"/>
  <text x="242" y="345" text-anchor="middle" font-size="11" fill="#444">HTTPS / JSON</text>

  <!-- API GW -> lambdas -->
  <line x1="470" y1="320" x2="550" y2="160" stroke="#444" stroke-width="2" marker-end="url(#arrow)"/>
  <text x="496" y="220" text-anchor="middle" font-size="10" fill="#444">/api/movies</text>

  <line x1="470" y1="355" x2="550" y2="310" stroke="#444" stroke-width="2" marker-end="url(#arrow)"/>
  <text x="508" y="322" text-anchor="middle" font-size="10" fill="#444">/api/auth</text>

  <line x1="470" y1="390" x2="550" y2="460" stroke="#444" stroke-width="2" marker-end="url(#arrow)"/>
  <text x="497" y="442" text-anchor="middle" font-size="10" fill="#444">/bookmarks</text>

  <!-- lambdas -> tables -->
  <line x1="735" y1="147" x2="795" y2="147" stroke="#444" stroke-width="2" marker-end="url(#arrow)"/>
  <line x1="735" y1="307" x2="795" y2="307" stroke="#444" stroke-width="2" marker-end="url(#arrow)"/>
  <line x1="735" y1="467" x2="795" y2="467" stroke="#444" stroke-width="2" marker-end="url(#arrow)"/>

  <!-- auth -> gmail -->
  <line x1="645" y1="355" x2="645" y2="555" stroke="#d93025" stroke-width="1.5" stroke-dasharray="4 3" marker-end="url(#arrowr)"/>
  <text x="668" y="540" font-size="10" fill="#d93025">send OTP</text>

  <!-- app -> S3 posters -->
  <line x1="110" y1="410" x2="110" y2="600" stroke="#1b9e4b" stroke-width="2" stroke-dasharray="5 3"/>
  <line x1="110" y1="600" x2="295" y2="600" stroke="#1b9e4b" stroke-width="2" stroke-dasharray="5 3" marker-end="url(#arrowg)"/>
  <text x="180" y="590" text-anchor="middle" font-size="10" fill="#1b9e4b">GET posters (HTTPS)</text>

  <!-- lambdas -> cloudwatch -->
  <line x1="745" y1="510" x2="845" y2="635" stroke="#e0457b" stroke-width="1.5" stroke-dasharray="3 3" marker-end="url(#arrowp)"/>
  <text x="800" y="565" font-size="10" fill="#e0457b">logs</text>
</svg>
